<svg xmlns="http://www.w3.org/2000/svg" xmlns:xlink="http://www.w3.org/1999/xlink" width="1920" zoomAndPan="magnify" viewBox="0 0 1440 809.999993" height="1080" preserveAspectRatio="xMidYMid meet" version="1.0"><defs><filter x="0%" y="0%" width="100%" height="100%" id="38601eee0d"><feColorMatrix values="0 0 0 0 1 0 0 0 0 1 0 0 0 0 1 0 0 0 1 0" color-interpolation-filters="sRGB"/></filter><g/><mask id="fa1b5697cc"><g filter="url(#38601eee0d)"><rect x="-144" width="1728" fill="#000000" y="-80.999999" height="971.999992" fill-opacity="0.53"/></g></mask><clipPath id="34d5fb0240"><rect x="0" width="707" y="0" height="102"/></clipPath></defs><g fill="#faf3e0" fill-opacity="1"><g transform="translate(17.096878, 378.918508)"><g><path d="M 97.75 -46.625 C 97.195312 -46.625 96.722656 -46.816406 96.328125 -47.203125 C 95.941406 -47.597656 95.75 -48.070312 95.75 -48.625 C 95.75 -49.289062 96 -49.816406 96.5 -50.203125 C 97 -50.597656 97.75 -51.015625 98.75 -51.453125 C 101.632812 -52.117188 104.878906 -53.894531 108.484375 -56.78125 C 112.097656 -59.664062 115.515625 -63.359375 118.734375 -67.859375 C 121.953125 -72.359375 124.644531 -77.550781 126.8125 -83.4375 C 128.976562 -89.320312 130.0625 -95.648438 130.0625 -102.421875 C 130.0625 -105.304688 129.671875 -107.992188 128.890625 -110.484375 C 128.117188 -112.984375 126.867188 -115.175781 125.140625 -117.0625 C 123.421875 -118.957031 121.203125 -120.429688 118.484375 -121.484375 C 115.765625 -122.535156 112.460938 -123.0625 108.578125 -123.0625 C 100.921875 -123.0625 93.484375 -122.226562 86.265625 -120.5625 C 79.046875 -118.90625 72.242188 -116.628906 65.859375 -113.734375 C 59.472656 -110.847656 53.613281 -107.460938 48.28125 -103.578125 C 42.957031 -99.691406 38.378906 -95.5 34.546875 -91 C 30.722656 -86.507812 27.726562 -81.847656 25.5625 -77.015625 C 23.394531 -72.191406 22.3125 -67.445312 22.3125 -62.78125 C 22.3125 -59.007812 23.195312 -56.148438 24.96875 -54.203125 C 26.75 -52.265625 29.140625 -51.296875 32.140625 -51.296875 C 36.242188 -51.296875 39.597656 -52.738281 42.203125 -55.625 C 44.816406 -58.507812 46.125 -62.0625 46.125 -66.28125 C 46.125 -66.832031 46.066406 -67.523438 45.953125 -68.359375 C 45.847656 -69.191406 45.796875 -69.773438 45.796875 -70.109375 C 45.796875 -70.660156 45.929688 -71.128906 46.203125 -71.515625 C 46.484375 -71.910156 46.957031 -72.109375 47.625 -72.109375 C 49.070312 -72.109375 50.296875 -71.382812 51.296875 -69.9375 C 52.296875 -68.5 52.796875 -66.554688 52.796875 -64.109375 C 52.796875 -61.222656 52.15625 -58.445312 50.875 -55.78125 C 49.59375 -53.125 47.757812 -50.796875 45.375 -48.796875 C 42.988281 -46.796875 40.128906 -45.179688 36.796875 -43.953125 C 33.472656 -42.734375 29.753906 -42.125 25.640625 -42.125 C 23.316406 -42.125 21.039062 -42.484375 18.8125 -43.203125 C 16.59375 -43.929688 14.625 -45.015625 12.90625 -46.453125 C 11.1875 -47.898438 9.828125 -49.707031 8.828125 -51.875 C 7.828125 -54.039062 7.328125 -56.625 7.328125 -59.625 C 7.328125 -65.726562 8.742188 -71.722656 11.578125 -77.609375 C 14.410156 -83.492188 18.320312 -89.070312 23.3125 -94.34375 C 28.3125 -99.613281 34.222656 -104.492188 41.046875 -108.984375 C 47.878906 -113.484375 55.289062 -117.367188 63.28125 -120.640625 C 71.269531 -123.921875 79.648438 -126.476562 88.421875 -128.3125 C 97.191406 -130.144531 106.078125 -131.0625 115.078125 -131.0625 C 121.734375 -131.0625 127.613281 -130.28125 132.71875 -128.71875 C 137.832031 -127.164062 142.164062 -125.03125 145.71875 -122.3125 C 149.269531 -119.59375 151.960938 -116.398438 153.796875 -112.734375 C 155.628906 -109.078125 156.546875 -105.140625 156.546875 -100.921875 C 156.546875 -95.367188 155.546875 -90.175781 153.546875 -85.34375 C 151.546875 -80.519531 148.9375 -76.109375 145.71875 -72.109375 C 142.5 -68.109375 138.804688 -64.523438 134.640625 -61.359375 C 130.472656 -58.203125 126.195312 -55.539062 121.8125 -53.375 C 117.425781 -51.207031 113.148438 -49.539062 108.984375 -48.375 C 104.828125 -47.207031 101.082031 -46.625 97.75 -46.625 Z M 86.4375 -110.25 L 113.234375 -117.078125 L 114.078125 -116.40625 L 85.09375 -35.96875 C 82.988281 -30.195312 80.65625 -25.5625 78.09375 -22.0625 C 75.539062 -18.5625 73.097656 -15.867188 70.765625 -13.984375 C 68.441406 -12.097656 66.390625 -10.820312 64.609375 -10.15625 C 62.835938 -9.488281 61.726562 -9.101562 61.28125 -9 C 64.28125 -8.882812 67.109375 -8.296875 69.765625 -7.234375 C 72.429688 -6.179688 75.039062 -5.015625 77.59375 -3.734375 C 80.15625 -2.460938 82.679688 -1.328125 85.171875 -0.328125 C 87.671875 0.671875 90.203125 1.171875 92.765625 1.171875 C 93.984375 1.171875 95.175781 1.03125 96.34375 0.75 C 97.507812 0.46875 98.535156 0.160156 99.421875 -0.171875 C 100.421875 -0.609375 101.363281 -1.050781 102.25 -1.5 L 103.578125 2.171875 C 101.242188 3.492188 98.582031 4.65625 95.59375 5.65625 C 93.039062 6.550781 89.929688 7.332031 86.265625 8 C 82.597656 8.664062 78.429688 9 73.765625 9 C 69.878906 9 66.410156 8.46875 63.359375 7.40625 C 60.304688 6.351562 57.304688 5.1875 54.359375 3.90625 C 51.421875 2.632812 48.34375 1.46875 45.125 0.40625 C 41.90625 -0.644531 38.300781 -1.171875 34.3125 -1.171875 L 34.3125 -5.15625 C 36.632812 -5.15625 38.820312 -5.570312 40.875 -6.40625 C 42.9375 -7.238281 44.960938 -8.789062 46.953125 -11.0625 C 48.953125 -13.34375 50.976562 -16.484375 53.03125 -20.484375 C 55.09375 -24.484375 57.234375 -29.585938 59.453125 -35.796875 Z M 86.4375 -110.25 "/></g></g></g><g fill="#faf3e0" fill-opacity="1"><g transform="translate(156.486379, 378.918508)"><g><path d="M 19.8125 -58.953125 C 19.8125 -60.722656 19.144531 -61.609375 17.8125 -61.609375 C 16.707031 -61.609375 15.570312 -61.191406 14.40625 -60.359375 C 13.238281 -59.535156 12.320312 -59.125 11.65625 -59.125 C 10.65625 -59.125 10.15625 -59.675781 10.15625 -60.78125 C 10.15625 -61.5625 10.765625 -62.5625 11.984375 -63.78125 C 13.210938 -65 14.90625 -66.132812 17.0625 -67.1875 C 19.226562 -68.25 21.78125 -69.164062 24.71875 -69.9375 C 27.664062 -70.71875 30.863281 -71.109375 34.3125 -71.109375 C 37.53125 -71.109375 40.191406 -70.46875 42.296875 -69.1875 C 44.410156 -67.914062 45.46875 -66.335938 45.46875 -64.453125 C 45.46875 -62.453125 44.4375 -59.203125 42.375 -54.703125 C 40.320312 -50.210938 38.046875 -45.191406 35.546875 -39.640625 C 33.054688 -34.085938 30.78125 -28.394531 28.71875 -22.5625 C 26.664062 -16.738281 25.640625 -11.492188 25.640625 -6.828125 C 26.421875 -6.828125 27.195312 -7.046875 27.96875 -7.484375 C 28.75 -7.929688 29.523438 -8.40625 30.296875 -8.90625 C 31.078125 -9.40625 31.773438 -9.875 32.390625 -10.3125 C 33.003906 -10.757812 33.476562 -10.984375 33.8125 -10.984375 C 34.363281 -10.984375 34.75 -10.675781 34.96875 -10.0625 C 35.1875 -9.457031 35.296875 -8.878906 35.296875 -8.328125 C 35.296875 -7.546875 34.769531 -6.546875 33.71875 -5.328125 C 32.664062 -4.109375 31.164062 -2.914062 29.21875 -1.75 C 27.28125 -0.582031 24.976562 0.414062 22.3125 1.25 C 19.644531 2.082031 16.757812 2.5 13.65625 2.5 C 6.101562 2.5 2.328125 -0.21875 2.328125 -5.65625 C 2.328125 -7.988281 2.769531 -10.789062 3.65625 -14.0625 C 4.550781 -17.34375 5.632812 -20.785156 6.90625 -24.390625 C 8.1875 -28.003906 9.578125 -31.640625 11.078125 -35.296875 C 12.578125 -38.960938 13.960938 -42.378906 15.234375 -45.546875 C 16.515625 -48.710938 17.597656 -51.488281 18.484375 -53.875 C 19.367188 -56.257812 19.8125 -57.953125 19.8125 -58.953125 Z M 59.625 -102.421875 C 59.625 -99.535156 58.566406 -96.976562 56.453125 -94.75 C 54.347656 -92.53125 51.296875 -91.421875 47.296875 -91.421875 C 43.296875 -91.421875 40.269531 -92.472656 38.21875 -94.578125 C 36.164062 -96.691406 35.140625 -99.140625 35.140625 -101.921875 C 35.140625 -104.804688 36.164062 -107.382812 38.21875 -109.65625 C 40.269531 -111.9375 43.40625 -113.078125 47.625 -113.078125 C 51.507812 -113.078125 54.476562 -112.019531 56.53125 -109.90625 C 58.59375 -107.800781 59.625 -105.304688 59.625 -102.421875 Z M 59.625 -102.421875 "/></g></g></g><g fill="#faf3e0" fill-opacity="1"><g transform="translate(202.449929, 378.918508)"><g><path d="M 86.265625 7.65625 C 86.265625 8.550781 85.429688 9.96875 83.765625 11.90625 C 82.097656 13.851562 79.738281 15.820312 76.6875 17.8125 C 73.632812 19.8125 69.914062 21.585938 65.53125 23.140625 C 61.144531 24.703125 56.234375 25.484375 50.796875 25.484375 C 46.679688 25.484375 42.929688 25.035156 39.546875 24.140625 C 36.160156 23.253906 33.050781 22.0625 30.21875 20.5625 C 27.394531 19.0625 24.867188 17.394531 22.640625 15.5625 C 20.421875 13.738281 18.476562 11.828125 16.8125 9.828125 C 12.820312 5.273438 9.660156 0 7.328125 -6 C 5.441406 -4.882812 3.664062 -3.882812 2 -3 C 0.550781 -2.21875 -0.945312 -1.519531 -2.5 -0.90625 C -4.050781 -0.300781 -5.269531 0 -6.15625 0 C -7.9375 0 -8.828125 -1.273438 -8.828125 -3.828125 C -8.828125 -5.609375 -8.210938 -7.523438 -6.984375 -9.578125 C -5.765625 -11.628906 -4.128906 -13.515625 -2.078125 -15.234375 C -0.0234375 -16.953125 2.359375 -18.367188 5.078125 -19.484375 C 7.796875 -20.597656 10.65625 -21.15625 13.65625 -21.15625 C 14.65625 -21.15625 15.707031 -21.039062 16.8125 -20.8125 C 17.257812 -20.707031 17.707031 -20.597656 18.15625 -20.484375 C 22.257812 -23.253906 26.3125 -26.25 30.3125 -29.46875 C 33.75 -32.132812 37.328125 -35.21875 41.046875 -38.71875 C 44.765625 -42.21875 48.015625 -45.796875 50.796875 -49.453125 C 47.910156 -48.898438 45.019531 -48.40625 42.125 -47.96875 C 39.570312 -47.519531 36.851562 -47.15625 33.96875 -46.875 C 31.082031 -46.601562 28.363281 -46.46875 25.8125 -46.46875 C 21.144531 -46.46875 17.535156 -47.351562 14.984375 -49.125 C 12.429688 -50.90625 11.15625 -53.625 11.15625 -57.28125 C 11.15625 -60.0625 11.707031 -62.8125 12.8125 -65.53125 C 13.925781 -68.25 15.285156 -70.71875 16.890625 -72.9375 C 18.503906 -75.15625 20.195312 -76.957031 21.96875 -78.34375 C 23.75 -79.738281 25.304688 -80.4375 26.640625 -80.4375 C 27.753906 -80.4375 28.3125 -79.992188 28.3125 -79.109375 C 28.3125 -78.546875 27.976562 -77.875 27.3125 -77.09375 C 26.644531 -76.320312 26.3125 -75.328125 26.3125 -74.109375 C 26.3125 -71.554688 29.445312 -69.222656 35.71875 -67.109375 C 41.988281 -65.003906 51.617188 -63.953125 64.609375 -63.953125 C 65.835938 -66.390625 67.421875 -68.578125 69.359375 -70.515625 C 71.304688 -72.460938 73.390625 -73.4375 75.609375 -73.4375 C 76.941406 -73.4375 77.941406 -73.046875 78.609375 -72.265625 C 79.273438 -71.492188 79.609375 -70.5 79.609375 -69.28125 C 79.609375 -67.164062 79.160156 -65.21875 78.265625 -63.4375 C 77.378906 -61.664062 76.242188 -60.085938 74.859375 -58.703125 C 73.472656 -57.316406 71.914062 -56.09375 70.1875 -55.03125 C 68.46875 -53.976562 66.832031 -53.117188 65.28125 -52.453125 C 60.613281 -47.347656 55.835938 -42.570312 50.953125 -38.125 C 46.066406 -33.6875 41.515625 -29.859375 37.296875 -26.640625 C 32.410156 -22.753906 27.582031 -19.203125 22.8125 -15.984375 C 26.476562 -10.765625 30.585938 -6.101562 35.140625 -2 C 39.023438 1.550781 43.660156 4.742188 49.046875 7.578125 C 54.429688 10.410156 60.398438 11.828125 66.953125 11.828125 C 69.609375 11.828125 71.988281 11.519531 74.09375 10.90625 C 76.207031 10.289062 78.015625 9.648438 79.515625 8.984375 C 81.015625 8.328125 82.207031 7.691406 83.09375 7.078125 C 83.988281 6.460938 84.65625 6.15625 85.09375 6.15625 C 85.875 6.15625 86.265625 6.65625 86.265625 7.65625 Z M 86.265625 7.65625 "/></g></g></g><g fill="#faf3e0" fill-opacity="1"><g transform="translate(268.064574, 378.918508)"><g><path d="M 86.265625 7.65625 C 86.265625 8.550781 85.429688 9.96875 83.765625 11.90625 C 82.097656 13.851562 79.738281 15.820312 76.6875 17.8125 C 73.632812 19.8125 69.914062 21.585938 65.53125 23.140625 C 61.144531 24.703125 56.234375 25.484375 50.796875 25.484375 C 46.679688 25.484375 42.929688 25.035156 39.546875 24.140625 C 36.160156 23.253906 33.050781 22.0625 30.21875 20.5625 C 27.394531 19.0625 24.867188 17.394531 22.640625 15.5625 C 20.421875 13.738281 18.476562 11.828125 16.8125 9.828125 C 12.820312 5.273438 9.660156 0 7.328125 -6 C 5.441406 -4.882812 3.664062 -3.882812 2 -3 C 0.550781 -2.21875 -0.945312 -1.519531 -2.5 -0.90625 C -4.050781 -0.300781 -5.269531 0 -6.15625 0 C -7.9375 0 -8.828125 -1.273438 -8.828125 -3.828125 C -8.828125 -5.609375 -8.210938 -7.523438 -6.984375 -9.578125 C -5.765625 -11.628906 -4.128906 -13.515625 -2.078125 -15.234375 C -0.0234375 -16.953125 2.359375 -18.367188 5.078125 -19.484375 C 7.796875 -20.597656 10.65625 -21.15625 13.65625 -21.15625 C 14.65625 -21.15625 15.707031 -21.039062 16.8125 -20.8125 C 17.257812 -20.707031 17.707031 -20.597656 18.15625 -20.484375 C 22.257812 -23.253906 26.3125 -26.25 30.3125 -29.46875 C 33.75 -32.132812 37.328125 -35.21875 41.046875 -38.71875 C 44.765625 -42.21875 48.015625 -45.796875 50.796875 -49.453125 C 47.910156 -48.898438 45.019531 -48.40625 42.125 -47.96875 C 39.570312 -47.519531 36.851562 -47.15625 33.96875 -46.875 C 31.082031 -46.601562 28.363281 -46.46875 25.8125 -46.46875 C 21.144531 -46.46875 17.535156 -47.351562 14.984375 -49.125 C 12.429688 -50.90625 11.15625 -53.625 11.15625 -57.28125 C 11.15625 -60.0625 11.707031 -62.8125 12.8125 -65.53125 C 13.925781 -68.25 15.285156 -70.71875 16.890625 -72.9375 C 18.503906 -75.15625 20.195312 -76.957031 21.96875 -78.34375 C 23.75 -79.738281 25.304688 -80.4375 26.640625 -80.4375 C 27.753906 -80.4375 28.3125 -79.992188 28.3125 -79.109375 C 28.3125 -78.546875 27.976562 -77.875 27.3125 -77.09375 C 26.644531 -76.320312 26.3125 -75.328125 26.3125 -74.109375 C 26.3125 -71.554688 29.445312 -69.222656 35.71875 -67.109375 C 41.988281 -65.003906 51.617188 -63.953125 64.609375 -63.953125 C 65.835938 -66.390625 67.421875 -68.578125 69.359375 -70.515625 C 71.304688 -72.460938 73.390625 -73.4375 75.609375 -73.4375 C 76.941406 -73.4375 77.941406 -73.046875 78.609375 -72.265625 C 79.273438 -71.492188 79.609375 -70.5 79.609375 -69.28125 C 79.609375 -67.164062 79.160156 -65.21875 78.265625 -63.4375 C 77.378906 -61.664062 76.242188 -60.085938 74.859375 -58.703125 C 73.472656 -57.316406 71.914062 -56.09375 70.1875 -55.03125 C 68.46875 -53.976562 66.832031 -53.117188 65.28125 -52.453125 C 60.613281 -47.347656 55.835938 -42.570312 50.953125 -38.125 C 46.066406 -33.6875 41.515625 -29.859375 37.296875 -26.640625 C 32.410156 -22.753906 27.582031 -19.203125 22.8125 -15.984375 C 26.476562 -10.765625 30.585938 -6.101562 35.140625 -2 C 39.023438 1.550781 43.660156 4.742188 49.046875 7.578125 C 54.429688 10.410156 60.398438 11.828125 66.953125 11.828125 C 69.609375 11.828125 71.988281 11.519531 74.09375 10.90625 C 76.207031 10.289062 78.015625 9.648438 79.515625 8.984375 C 81.015625 8.328125 82.207031 7.691406 83.09375 7.078125 C 83.988281 6.460938 84.65625 6.15625 85.09375 6.15625 C 85.875 6.15625 86.265625 6.65625 86.265625 7.65625 Z M 86.265625 7.65625 "/></g></g></g><g fill="#faf3e0" fill-opacity="1"><g transform="translate(333.67922, 378.918508)"><g><path d="M 58.28125 -19.15625 C 58.84375 -19.15625 59.34375 -18.90625 59.78125 -18.40625 C 60.226562 -17.90625 60.453125 -17.320312 60.453125 -16.65625 C 60.453125 -15.65625 59.5625 -14.097656 57.78125 -11.984375 C 56.007812 -9.878906 53.597656 -7.742188 50.546875 -5.578125 C 47.492188 -3.410156 43.96875 -1.523438 39.96875 0.078125 C 35.96875 1.691406 31.75 2.5 27.3125 2.5 C 19.320312 2.5 13.21875 0.53125 9 -3.40625 C 4.78125 -7.351562 2.671875 -12.988281 2.671875 -20.3125 C 2.671875 -26.863281 4.03125 -33.21875 6.75 -39.375 C 9.46875 -45.539062 13.210938 -51.007812 17.984375 -55.78125 C 22.753906 -60.5625 28.300781 -64.394531 34.625 -67.28125 C 40.957031 -70.164062 47.734375 -71.609375 54.953125 -71.609375 C 60.285156 -71.609375 64.335938 -70.441406 67.109375 -68.109375 C 69.890625 -65.773438 71.28125 -62.78125 71.28125 -59.125 C 71.28125 -55.789062 70.164062 -52.566406 67.9375 -49.453125 C 65.71875 -46.347656 62.640625 -43.570312 58.703125 -41.125 C 54.765625 -38.6875 50.15625 -36.691406 44.875 -35.140625 C 39.601562 -33.585938 33.972656 -32.695312 27.984375 -32.46875 C 27.535156 -31.03125 27.144531 -29.476562 26.8125 -27.8125 C 26.476562 -26.363281 26.195312 -24.722656 25.96875 -22.890625 C 25.75 -21.066406 25.640625 -19.15625 25.640625 -17.15625 C 25.640625 -9.9375 28.363281 -6.328125 33.8125 -6.328125 C 36.582031 -6.328125 39.269531 -6.992188 41.875 -8.328125 C 44.488281 -9.660156 46.878906 -11.128906 49.046875 -12.734375 C 51.210938 -14.347656 53.097656 -15.820312 54.703125 -17.15625 C 56.316406 -18.488281 57.507812 -19.15625 58.28125 -19.15625 Z M 29.640625 -37.796875 C 33.523438 -38.128906 36.992188 -39.128906 40.046875 -40.796875 C 43.097656 -42.460938 45.648438 -44.40625 47.703125 -46.625 C 49.765625 -48.84375 51.347656 -51.171875 52.453125 -53.609375 C 53.566406 -56.054688 54.125 -58.113281 54.125 -59.78125 C 54.125 -62.894531 53.066406 -64.453125 50.953125 -64.453125 C 49.398438 -64.453125 47.679688 -63.785156 45.796875 -62.453125 C 43.910156 -61.117188 41.992188 -59.257812 40.046875 -56.875 C 38.109375 -54.488281 36.222656 -51.65625 34.390625 -48.375 C 32.554688 -45.101562 30.972656 -41.578125 29.640625 -37.796875 Z M 29.640625 -37.796875 "/></g></g></g><g fill="#faf3e0" fill-opacity="1"><g transform="translate(403.290726, 378.918508)"><g><path d="M 36.296875 -44.296875 C 36.960938 -45.410156 38.210938 -47.4375 40.046875 -50.375 C 41.878906 -53.3125 44.128906 -56.363281 46.796875 -59.53125 C 49.460938 -62.695312 52.457031 -65.5 55.78125 -67.9375 C 59.113281 -70.382812 62.613281 -71.609375 66.28125 -71.609375 C 69.164062 -71.609375 71.21875 -70.910156 72.4375 -69.515625 C 73.65625 -68.128906 74.265625 -66.328125 74.265625 -64.109375 C 74.265625 -60.554688 73.375 -57.085938 71.59375 -53.703125 C 69.820312 -50.316406 67.710938 -47.316406 65.265625 -44.703125 C 62.828125 -42.097656 60.304688 -39.988281 57.703125 -38.375 C 55.097656 -36.769531 53.015625 -35.96875 51.453125 -35.96875 C 49.679688 -35.96875 48.796875 -36.859375 48.796875 -38.640625 C 48.796875 -39.640625 49.210938 -40.859375 50.046875 -42.296875 C 50.878906 -43.742188 51.796875 -45.242188 52.796875 -46.796875 C 53.796875 -48.347656 54.707031 -49.898438 55.53125 -51.453125 C 56.363281 -53.015625 56.78125 -54.457031 56.78125 -55.78125 C 56.78125 -57.5625 56.335938 -58.453125 55.453125 -58.453125 C 54.117188 -58.453125 52.675781 -57.785156 51.125 -56.453125 C 49.570312 -55.117188 48.015625 -53.425781 46.453125 -51.375 C 44.898438 -49.320312 43.375 -47.019531 41.875 -44.46875 C 40.382812 -41.914062 39 -39.441406 37.71875 -37.046875 C 36.4375 -34.660156 35.378906 -32.492188 34.546875 -30.546875 C 33.722656 -28.609375 33.195312 -27.195312 32.96875 -26.3125 C 31.414062 -21.09375 29.945312 -16.648438 28.5625 -12.984375 C 27.175781 -9.328125 25.675781 -6.359375 24.0625 -4.078125 C 22.457031 -1.804688 20.625 -0.171875 18.5625 0.828125 C 16.507812 1.828125 14.148438 2.328125 11.484375 2.328125 C 8.710938 2.328125 6.160156 1.96875 3.828125 1.25 C 1.492188 0.53125 0.328125 -0.550781 0.328125 -2 C 0.328125 -3.550781 0.769531 -5.4375 1.65625 -7.65625 C 2.550781 -9.875 3.550781 -12.097656 4.65625 -14.328125 C 5.882812 -16.878906 7.382812 -19.488281 9.15625 -22.15625 C 10.488281 -25.257812 11.710938 -28.53125 12.828125 -31.96875 C 13.710938 -34.851562 14.539062 -38.128906 15.3125 -41.796875 C 16.09375 -45.460938 16.484375 -49.179688 16.484375 -52.953125 C 16.484375 -56.617188 16.125 -59.003906 15.40625 -60.109375 C 14.6875 -61.222656 13.828125 -61.78125 12.828125 -61.78125 C 11.929688 -61.78125 11.175781 -61.585938 10.5625 -61.203125 C 9.957031 -60.816406 9.4375 -60.625 9 -60.625 C 8.101562 -60.625 7.65625 -61.175781 7.65625 -62.28125 C 7.65625 -63.0625 8.179688 -63.953125 9.234375 -64.953125 C 10.296875 -65.953125 11.710938 -66.921875 13.484375 -67.859375 C 15.265625 -68.804688 17.347656 -69.613281 19.734375 -70.28125 C 22.117188 -70.945312 24.585938 -71.28125 27.140625 -71.28125 C 30.921875 -71.28125 33.890625 -70.25 36.046875 -68.1875 C 38.210938 -66.132812 39.296875 -63.390625 39.296875 -59.953125 C 39.296875 -58.285156 39.101562 -56.5625 38.71875 -54.78125 C 38.332031 -53.007812 37.914062 -51.347656 37.46875 -49.796875 C 36.914062 -48.015625 36.304688 -46.289062 35.640625 -44.625 Z M 36.296875 -44.296875 "/></g></g><g transform="translate(465.907762, 378.918508)"><g><path d="M 19.8125 -58.953125 C 19.8125 -60.722656 19.144531 -61.609375 17.8125 -61.609375 C 16.707031 -61.609375 15.570312 -61.191406 14.40625 -60.359375 C 13.238281 -59.535156 12.320312 -59.125 11.65625 -59.125 C 10.65625 -59.125 10.15625 -59.675781 10.15625 -60.78125 C 10.15625 -61.5625 10.765625 -62.5625 11.984375 -63.78125 C 13.210938 -65 14.90625 -66.132812 17.0625 -67.1875 C 19.226562 -68.25 21.78125 -69.164062 24.71875 -69.9375 C 27.664062 -70.71875 30.863281 -71.109375 34.3125 -71.109375 C 37.53125 -71.109375 40.191406 -70.46875 42.296875 -69.1875 C 44.410156 -67.914062 45.46875 -66.335938 45.46875 -64.453125 C 45.46875 -62.453125 44.4375 -59.203125 42.375 -54.703125 C 40.320312 -50.210938 38.046875 -45.191406 35.546875 -39.640625 C 33.054688 -34.085938 30.78125 -28.394531 28.71875 -22.5625 C 26.664062 -16.738281 25.640625 -11.492188 25.640625 -6.828125 C 26.421875 -6.828125 27.195312 -7.046875 27.96875 -7.484375 C 28.75 -7.929688 29.523438 -8.40625 30.296875 -8.90625 C 31.078125 -9.40625 31.773438 -9.875 32.390625 -10.3125 C 33.003906 -10.757812 33.476562 -10.984375 33.8125 -10.984375 C 34.363281 -10.984375 34.75 -10.675781 34.96875 -10.0625 C 35.1875 -9.457031 35.296875 -8.878906 35.296875 -8.328125 C 35.296875 -7.546875 34.769531 -6.546875 33.71875 -5.328125 C 32.664062 -4.109375 31.164062 -2.914062 29.21875 -1.75 C 27.28125 -0.582031 24.976562 0.414062 22.3125 1.25 C 19.644531 2.082031 16.757812 2.5 13.65625 2.5 C 6.101562 2.5 2.328125 -0.21875 2.328125 -5.65625 C 2.328125 -7.988281 2.769531 -10.789062 3.65625 -14.0625 C 4.550781 -17.34375 5.632812 -20.785156 6.90625 -24.390625 C 8.1875 -28.003906 9.578125 -31.640625 11.078125 -35.296875 C 12.578125 -38.960938 13.960938 -42.378906 15.234375 -45.546875 C 16.515625 -48.710938 17.597656 -51.488281 18.484375 -53.875 C 19.367188 -56.257812 19.8125 -57.953125 19.8125 -58.953125 Z M 59.625 -102.421875 C 59.625 -99.535156 58.566406 -96.976562 56.453125 -94.75 C 54.347656 -92.53125 51.296875 -91.421875 47.296875 -91.421875 C 43.296875 -91.421875 40.269531 -92.472656 38.21875 -94.578125 C 36.164062 -96.691406 35.140625 -99.140625 35.140625 -101.921875 C 35.140625 -104.804688 36.164062 -107.382812 38.21875 -109.65625 C 40.269531 -111.9375 43.40625 -113.078125 47.625 -113.078125 C 51.507812 -113.078125 54.476562 -112.019531 56.53125 -109.90625 C 58.59375 -107.800781 59.625 -105.304688 59.625 -102.421875 Z M 59.625 -102.421875 "/></g></g></g><g fill="#faf3e0" fill-opacity="1"><g transform="translate(511.871311, 378.918508)"><g><path d="M 69.4375 -7.828125 C 70.101562 -7.828125 70.769531 -8.046875 71.4375 -8.484375 C 72.101562 -8.929688 72.710938 -9.40625 73.265625 -9.90625 C 73.828125 -10.40625 74.359375 -10.875 74.859375 -11.3125 C 75.359375 -11.757812 75.773438 -11.984375 76.109375 -11.984375 C 77.210938 -11.984375 77.765625 -11.265625 77.765625 -9.828125 C 77.765625 -9.046875 77.207031 -7.960938 76.09375 -6.578125 C 74.988281 -5.191406 73.492188 -3.832031 71.609375 -2.5 C 69.722656 -1.164062 67.445312 0 64.78125 1 C 62.113281 2 59.226562 2.5 56.125 2.5 C 52.570312 2.5 49.820312 1.582031 47.875 -0.25 C 45.9375 -2.082031 44.96875 -4.882812 44.96875 -8.65625 C 44.96875 -10.539062 45.132812 -12.398438 45.46875 -14.234375 C 45.800781 -16.066406 46.242188 -17.757812 46.796875 -19.3125 C 47.347656 -21.09375 48.015625 -22.816406 48.796875 -24.484375 L 48.125 -24.8125 C 45.6875 -19.707031 42.800781 -15.15625 39.46875 -11.15625 C 36.582031 -7.71875 33.082031 -4.582031 28.96875 -1.75 C 24.863281 1.082031 20.148438 2.5 14.828125 2.5 C 10.941406 2.5 7.691406 1.363281 5.078125 -0.90625 C 2.472656 -3.1875 1.171875 -6.4375 1.171875 -10.65625 C 1.171875 -17.425781 2.695312 -24.390625 5.75 -31.546875 C 8.800781 -38.710938 12.960938 -45.265625 18.234375 -51.203125 C 23.503906 -57.148438 29.691406 -62.035156 36.796875 -65.859375 C 43.910156 -69.691406 51.570312 -71.609375 59.78125 -71.609375 C 67.113281 -71.609375 72.859375 -70.582031 77.015625 -68.53125 C 81.179688 -66.476562 83.265625 -64.335938 83.265625 -62.109375 C 83.265625 -60.453125 82.429688 -57.707031 80.765625 -53.875 C 79.097656 -50.039062 77.238281 -45.679688 75.1875 -40.796875 C 73.132812 -35.910156 71.273438 -30.800781 69.609375 -25.46875 C 67.941406 -20.144531 67.109375 -15.207031 67.109375 -10.65625 C 67.109375 -8.769531 67.882812 -7.828125 69.4375 -7.828125 Z M 27.140625 -9 C 28.804688 -9 30.75 -10.109375 32.96875 -12.328125 C 35.1875 -14.546875 37.460938 -17.398438 39.796875 -20.890625 C 42.128906 -24.390625 44.429688 -28.222656 46.703125 -32.390625 C 48.984375 -36.554688 51.039062 -40.582031 52.875 -44.46875 C 54.707031 -48.351562 56.175781 -51.847656 57.28125 -54.953125 C 58.394531 -58.066406 58.953125 -60.234375 58.953125 -61.453125 C 58.953125 -63.453125 57.726562 -64.453125 55.28125 -64.453125 C 52.957031 -64.453125 50.597656 -63.535156 48.203125 -61.703125 C 45.816406 -59.867188 43.457031 -57.476562 41.125 -54.53125 C 38.800781 -51.59375 36.640625 -48.234375 34.640625 -44.453125 C 32.640625 -40.679688 30.863281 -36.878906 29.3125 -33.046875 C 27.757812 -29.222656 26.566406 -25.503906 25.734375 -21.890625 C 24.898438 -18.285156 24.484375 -15.207031 24.484375 -12.65625 C 24.484375 -10.21875 25.367188 -9 27.140625 -9 Z M 27.140625 -9 "/></g></g></g><g fill="#faf3e0" fill-opacity="1"><g transform="translate(597.137053, 378.918508)"><g/></g></g><g fill="#faf3e0" fill-opacity="1"><g transform="translate(627.113299, 378.918508)"><g><path d="M 75.609375 2.5 C 74.609375 -7.71875 73.21875 -17.988281 71.4375 -28.3125 C 70.664062 -32.75 69.78125 -37.410156 68.78125 -42.296875 C 67.78125 -47.179688 66.613281 -52.148438 65.28125 -57.203125 C 63.945312 -62.253906 62.472656 -67.25 60.859375 -72.1875 C 59.253906 -77.132812 57.453125 -81.882812 55.453125 -86.4375 L 27.984375 -9.828125 C 26.535156 -5.941406 30.253906 -4 39.140625 -4 L 39.140625 0 L 3.65625 0 L 3.65625 -4 C 7.550781 -4 10.609375 -4.550781 12.828125 -5.65625 C 15.046875 -6.769531 16.539062 -8.269531 17.3125 -10.15625 L 51.625 -94.75 C 49.625 -98.414062 47.457031 -101.832031 45.125 -105 C 42.800781 -108.164062 40.273438 -110.910156 37.546875 -113.234375 C 34.828125 -115.566406 31.941406 -117.367188 28.890625 -118.640625 C 25.835938 -119.921875 22.59375 -120.5625 19.15625 -120.5625 C 15.601562 -120.5625 12.519531 -120.085938 9.90625 -119.140625 C 7.300781 -118.203125 5.132812 -117.207031 3.40625 -116.15625 C 1.6875 -115.101562 0.273438 -114.101562 -0.828125 -113.15625 C -1.941406 -112.21875 -2.773438 -111.75 -3.328125 -111.75 C -4.328125 -111.75 -4.828125 -112.242188 -4.828125 -113.234375 C -4.828125 -114.015625 -3.9375 -115.515625 -2.15625 -117.734375 C -0.382812 -119.953125 2.21875 -122.226562 5.65625 -124.5625 C 9.101562 -126.894531 13.320312 -128.945312 18.3125 -130.71875 C 23.3125 -132.5 29.03125 -133.390625 35.46875 -133.390625 C 41.90625 -133.390625 47.675781 -131.914062 52.78125 -128.96875 C 57.894531 -126.03125 62.394531 -122.144531 66.28125 -117.3125 C 70.164062 -112.488281 73.492188 -106.992188 76.265625 -100.828125 C 79.046875 -94.671875 81.4375 -88.375 83.4375 -81.9375 C 87.988281 -66.832031 91.039062 -49.734375 92.59375 -30.640625 L 93.25 -30.640625 L 120.0625 -110.75 C 120.957031 -113.300781 120.265625 -115.046875 117.984375 -115.984375 C 115.710938 -116.929688 112.019531 -117.40625 106.90625 -117.40625 L 106.90625 -121.5625 L 144.71875 -121.5625 L 144.71875 -117.40625 C 140.71875 -117.40625 137.273438 -116.875 134.390625 -115.8125 C 131.503906 -114.757812 129.617188 -113.070312 128.734375 -110.75 L 90.09375 2.5 Z M 75.609375 2.5 "/></g></g><g transform="translate(742.022221, 378.918508)"><g><path d="M 69.4375 -7.828125 C 70.101562 -7.828125 70.769531 -8.046875 71.4375 -8.484375 C 72.101562 -8.929688 72.710938 -9.40625 73.265625 -9.90625 C 73.828125 -10.40625 74.359375 -10.875 74.859375 -11.3125 C 75.359375 -11.757812 75.773438 -11.984375 76.109375 -11.984375 C 77.210938 -11.984375 77.765625 -11.265625 77.765625 -9.828125 C 77.765625 -9.046875 77.207031 -7.960938 76.09375 -6.578125 C 74.988281 -5.191406 73.492188 -3.832031 71.609375 -2.5 C 69.722656 -1.164062 67.445312 0 64.78125 1 C 62.113281 2 59.226562 2.5 56.125 2.5 C 52.570312 2.5 49.820312 1.582031 47.875 -0.25 C 45.9375 -2.082031 44.96875 -4.882812 44.96875 -8.65625 C 44.96875 -10.539062 45.132812 -12.398438 45.46875 -14.234375 C 45.800781 -16.066406 46.242188 -17.757812 46.796875 -19.3125 C 47.347656 -21.09375 48.015625 -22.816406 48.796875 -24.484375 L 48.125 -24.8125 C 45.6875 -19.707031 42.800781 -15.15625 39.46875 -11.15625 C 36.582031 -7.71875 33.082031 -4.582031 28.96875 -1.75 C 24.863281 1.082031 20.148438 2.5 14.828125 2.5 C 10.941406 2.5 7.691406 1.363281 5.078125 -0.90625 C 2.472656 -3.1875 1.171875 -6.4375 1.171875 -10.65625 C 1.171875 -17.425781 2.695312 -24.390625 5.75 -31.546875 C 8.800781 -38.710938 12.960938 -45.265625 18.234375 -51.203125 C 23.503906 -57.148438 29.691406 -62.035156 36.796875 -65.859375 C 43.910156 -69.691406 51.570312 -71.609375 59.78125 -71.609375 C 67.113281 -71.609375 72.859375 -70.582031 77.015625 -68.53125 C 81.179688 -66.476562 83.265625 -64.335938 83.265625 -62.109375 C 83.265625 -60.453125 82.429688 -57.707031 80.765625 -53.875 C 79.097656 -50.039062 77.238281 -45.679688 75.1875 -40.796875 C 73.132812 -35.910156 71.273438 -30.800781 69.609375 -25.46875 C 67.941406 -20.144531 67.109375 -15.207031 67.109375 -10.65625 C 67.109375 -8.769531 67.882812 -7.828125 69.4375 -7.828125 Z M 27.140625 -9 C 28.804688 -9 30.75 -10.109375 32.96875 -12.328125 C 35.1875 -14.546875 37.460938 -17.398438 39.796875 -20.890625 C 42.128906 -24.390625 44.429688 -28.222656 46.703125 -32.390625 C 48.984375 -36.554688 51.039062 -40.582031 52.875 -44.46875 C 54.707031 -48.351562 56.175781 -51.847656 57.28125 -54.953125 C 58.394531 -58.066406 58.953125 -60.234375 58.953125 -61.453125 C 58.953125 -63.453125 57.726562 -64.453125 55.28125 -64.453125 C 52.957031 -64.453125 50.597656 -63.535156 48.203125 -61.703125 C 45.816406 -59.867188 43.457031 -57.476562 41.125 -54.53125 C 38.800781 -51.59375 36.640625 -48.234375 34.640625 -44.453125 C 32.640625 -40.679688 30.863281 -36.878906 29.3125 -33.046875 C 27.757812 -29.222656 26.566406 -25.503906 25.734375 -21.890625 C 24.898438 -18.285156 24.484375 -15.207031 24.484375 -12.65625 C 24.484375 -10.21875 25.367188 -9 27.140625 -9 Z M 27.140625 -9 "/></g></g><g transform="translate(827.287972, 378.918508)"><g><path d="M 36.296875 -42.125 C 38.742188 -47.570312 41.6875 -52.457031 45.125 -56.78125 C 46.570312 -58.5625 48.210938 -60.335938 50.046875 -62.109375 C 51.878906 -63.890625 53.875 -65.5 56.03125 -66.9375 C 58.195312 -68.382812 60.5 -69.523438 62.9375 -70.359375 C 65.382812 -71.191406 68.050781 -71.609375 70.9375 -71.609375 C 74.9375 -71.609375 78.269531 -70.5 80.9375 -68.28125 C 83.601562 -66.0625 84.9375 -62.507812 84.9375 -57.625 C 84.9375 -52.957031 84.238281 -48.207031 82.84375 -43.375 C 81.457031 -38.550781 79.488281 -33.914062 76.9375 -29.46875 C 74.382812 -25.03125 71.332031 -20.867188 67.78125 -16.984375 C 64.226562 -13.097656 60.3125 -9.710938 56.03125 -6.828125 C 51.757812 -3.941406 47.207031 -1.664062 42.375 0 C 37.550781 1.664062 32.585938 2.5 27.484375 2.5 C 26.816406 2.5 26.203125 2.5 25.640625 2.5 C 25.085938 2.5 24.535156 2.441406 23.984375 2.328125 C 23.421875 2.222656 22.921875 2.113281 22.484375 2 C 20.484375 7.4375 18.707031 12.375 17.15625 16.8125 C 16.488281 18.707031 15.847656 20.625 15.234375 22.5625 C 14.628906 24.507812 14.078125 26.285156 13.578125 27.890625 C 13.078125 29.503906 12.6875 30.894531 12.40625 32.0625 C 12.125 33.226562 11.984375 34.03125 11.984375 34.46875 C 11.984375 35.6875 12.925781 36.488281 14.8125 36.875 C 16.707031 37.269531 19.316406 37.46875 22.640625 37.46875 L 22.640625 42.46875 L -19.15625 42.46875 L -19.15625 38.46875 L -10.984375 35.796875 C -5.773438 21.703125 -1.054688 8.550781 3.171875 -3.65625 C 4.941406 -8.875 6.660156 -14.148438 8.328125 -19.484375 C 9.992188 -24.816406 11.492188 -29.84375 12.828125 -34.5625 C 14.160156 -39.28125 15.238281 -43.582031 16.0625 -47.46875 C 16.894531 -51.351562 17.3125 -54.40625 17.3125 -56.625 C 17.3125 -60.28125 16.203125 -62.109375 13.984375 -62.109375 C 13.097656 -62.109375 12.207031 -61.773438 11.3125 -61.109375 C 10.425781 -60.453125 9.707031 -60.125 9.15625 -60.125 C 8.269531 -60.125 7.828125 -60.675781 7.828125 -61.78125 C 7.828125 -62.5625 8.378906 -63.503906 9.484375 -64.609375 C 10.597656 -65.722656 12.070312 -66.78125 13.90625 -67.78125 C 15.738281 -68.78125 17.898438 -69.640625 20.390625 -70.359375 C 22.890625 -71.078125 25.585938 -71.4375 28.484375 -71.4375 C 32.253906 -71.4375 35.222656 -70.460938 37.390625 -68.515625 C 39.554688 -66.578125 40.640625 -64 40.640625 -60.78125 C 40.640625 -59.226562 40.359375 -57.394531 39.796875 -55.28125 C 39.242188 -53.175781 38.632812 -51.179688 37.96875 -49.296875 C 37.1875 -47.078125 36.351562 -44.800781 35.46875 -42.46875 Z M 58.125 -60.125 C 56.5625 -60.125 54.722656 -59.007812 52.609375 -56.78125 C 50.503906 -54.5625 48.285156 -51.757812 45.953125 -48.375 C 43.628906 -44.988281 41.300781 -41.210938 38.96875 -37.046875 C 36.632812 -32.890625 34.550781 -28.835938 32.71875 -24.890625 C 30.882812 -20.953125 29.410156 -17.375 28.296875 -14.15625 C 27.191406 -10.9375 26.640625 -8.601562 26.640625 -7.15625 C 26.640625 -5.15625 27.914062 -4.15625 30.46875 -4.15625 C 32.695312 -4.15625 35.003906 -5.070312 37.390625 -6.90625 C 39.773438 -8.738281 42.132812 -11.125 44.46875 -14.0625 C 46.800781 -17.007812 48.960938 -20.34375 50.953125 -24.0625 C 52.953125 -27.78125 54.726562 -31.523438 56.28125 -35.296875 C 57.84375 -39.078125 59.066406 -42.742188 59.953125 -46.296875 C 60.835938 -49.847656 61.28125 -52.898438 61.28125 -55.453125 C 61.28125 -57.234375 61.003906 -58.457031 60.453125 -59.125 C 59.898438 -59.789062 59.125 -60.125 58.125 -60.125 Z M 58.125 -60.125 "/></g></g><g transform="translate(911.887585, 378.918508)"><g><path d="M 52.453125 -71.609375 C 56.453125 -71.609375 59.921875 -71.023438 62.859375 -69.859375 C 65.804688 -68.691406 68.222656 -67.082031 70.109375 -65.03125 C 71.992188 -62.976562 73.378906 -60.5625 74.265625 -57.78125 C 75.160156 -55.007812 75.609375 -51.957031 75.609375 -48.625 C 75.609375 -42.070312 74.328125 -35.710938 71.765625 -29.546875 C 69.210938 -23.390625 65.71875 -17.953125 61.28125 -13.234375 C 56.84375 -8.515625 51.625 -4.710938 45.625 -1.828125 C 39.632812 1.054688 33.253906 2.5 26.484375 2.5 C 19.484375 2.5 13.789062 0.695312 9.40625 -2.90625 C 5.019531 -6.519531 2.828125 -11.878906 2.828125 -18.984375 C 2.828125 -25.972656 4.160156 -32.628906 6.828125 -38.953125 C 9.492188 -45.285156 13.101562 -50.867188 17.65625 -55.703125 C 22.207031 -60.535156 27.476562 -64.394531 33.46875 -67.28125 C 39.46875 -70.164062 45.796875 -71.609375 52.453125 -71.609375 Z M 29.640625 -5 C 31.304688 -5 33.082031 -5.859375 34.96875 -7.578125 C 36.851562 -9.296875 38.738281 -11.597656 40.625 -14.484375 C 42.519531 -17.367188 44.296875 -20.613281 45.953125 -24.21875 C 47.617188 -27.832031 49.09375 -31.523438 50.375 -35.296875 C 51.65625 -39.078125 52.679688 -42.769531 53.453125 -46.375 C 54.234375 -49.988281 54.625 -53.179688 54.625 -55.953125 C 54.625 -61.503906 52.847656 -64.28125 49.296875 -64.28125 C 47.628906 -64.28125 45.851562 -63.421875 43.96875 -61.703125 C 42.082031 -59.984375 40.191406 -57.675781 38.296875 -54.78125 C 36.410156 -51.894531 34.632812 -48.648438 32.96875 -45.046875 C 31.300781 -41.441406 29.828125 -37.78125 28.546875 -34.0625 C 27.273438 -30.34375 26.25 -26.675781 25.46875 -23.0625 C 24.695312 -19.457031 24.3125 -16.320312 24.3125 -13.65625 C 24.3125 -10.4375 24.8125 -8.1875 25.8125 -6.90625 C 26.8125 -5.632812 28.085938 -5 29.640625 -5 Z M 29.640625 -5 "/></g></g></g><g fill="#faf3e0" fill-opacity="1"><g transform="translate(991.157998, 378.918508)"><g><path d="M 37.96875 -11.65625 C 38.300781 -11.65625 38.601562 -11.40625 38.875 -10.90625 C 39.15625 -10.40625 39.296875 -9.878906 39.296875 -9.328125 C 39.296875 -8.773438 38.738281 -7.832031 37.625 -6.5 C 36.519531 -5.164062 34.96875 -3.832031 32.96875 -2.5 C 30.96875 -1.164062 28.550781 0 25.71875 1 C 22.894531 2 19.757812 2.5 16.3125 2.5 C 11.65625 2.5 8.300781 1.472656 6.25 -0.578125 C 4.195312 -2.628906 3.171875 -5.601562 3.171875 -9.5 C 3.171875 -13.050781 3.722656 -17.546875 4.828125 -22.984375 C 5.941406 -28.421875 7.492188 -34.382812 9.484375 -40.875 C 11.484375 -47.375 13.84375 -54.175781 16.5625 -61.28125 C 19.289062 -68.382812 22.316406 -75.378906 25.640625 -82.265625 C 28.972656 -89.148438 32.5 -95.703125 36.21875 -101.921875 C 39.9375 -108.140625 43.765625 -113.601562 47.703125 -118.3125 C 51.648438 -123.03125 55.648438 -126.773438 59.703125 -129.546875 C 63.753906 -132.328125 67.722656 -133.71875 71.609375 -133.71875 C 75.046875 -133.71875 77.566406 -132.71875 79.171875 -130.71875 C 80.785156 -128.726562 81.59375 -126.125 81.59375 -122.90625 C 81.59375 -117.789062 80.066406 -111.707031 77.015625 -104.65625 C 73.960938 -97.613281 70.050781 -90.175781 65.28125 -82.34375 C 60.507812 -74.519531 55.207031 -66.664062 49.375 -58.78125 C 43.550781 -50.90625 37.863281 -43.632812 32.3125 -36.96875 C 31.195312 -33.632812 30.195312 -30.414062 29.3125 -27.3125 C 28.53125 -24.644531 27.832031 -21.867188 27.21875 -18.984375 C 26.613281 -16.097656 26.3125 -13.597656 26.3125 -11.484375 C 26.3125 -8.160156 26.976562 -6.5 28.3125 -6.5 C 29.3125 -6.5 30.28125 -6.773438 31.21875 -7.328125 C 32.164062 -7.878906 33.082031 -8.457031 33.96875 -9.0625 C 34.851562 -9.675781 35.65625 -10.257812 36.375 -10.8125 C 37.101562 -11.375 37.632812 -11.65625 37.96875 -11.65625 Z M 36.140625 -49.796875 C 40.242188 -55.117188 44.488281 -61.164062 48.875 -67.9375 C 53.257812 -74.71875 57.226562 -81.4375 60.78125 -88.09375 C 64.332031 -94.757812 67.273438 -100.976562 69.609375 -106.75 C 71.941406 -112.519531 73.109375 -117.125 73.109375 -120.5625 C 73.109375 -122.789062 72.550781 -123.90625 71.4375 -123.90625 C 70 -123.90625 67.890625 -121.597656 65.109375 -116.984375 C 62.335938 -112.378906 59.285156 -106.46875 55.953125 -99.25 C 52.617188 -92.03125 49.203125 -84.0625 45.703125 -75.34375 C 42.210938 -66.632812 39.023438 -58.117188 36.140625 -49.796875 Z M 36.140625 -49.796875 "/></g></g></g><g fill="#faf3e0" fill-opacity="1"><g transform="translate(1041.784499, 378.918508)"><g><path d="M 58.28125 -19.15625 C 58.84375 -19.15625 59.34375 -18.90625 59.78125 -18.40625 C 60.226562 -17.90625 60.453125 -17.320312 60.453125 -16.65625 C 60.453125 -15.65625 59.5625 -14.097656 57.78125 -11.984375 C 56.007812 -9.878906 53.597656 -7.742188 50.546875 -5.578125 C 47.492188 -3.410156 43.96875 -1.523438 39.96875 0.078125 C 35.96875 1.691406 31.75 2.5 27.3125 2.5 C 19.320312 2.5 13.21875 0.53125 9 -3.40625 C 4.78125 -7.351562 2.671875 -12.988281 2.671875 -20.3125 C 2.671875 -26.863281 4.03125 -33.21875 6.75 -39.375 C 9.46875 -45.539062 13.210938 -51.007812 17.984375 -55.78125 C 22.753906 -60.5625 28.300781 -64.394531 34.625 -67.28125 C 40.957031 -70.164062 47.734375 -71.609375 54.953125 -71.609375 C 60.285156 -71.609375 64.335938 -70.441406 67.109375 -68.109375 C 69.890625 -65.773438 71.28125 -62.78125 71.28125 -59.125 C 71.28125 -55.789062 70.164062 -52.566406 67.9375 -49.453125 C 65.71875 -46.347656 62.640625 -43.570312 58.703125 -41.125 C 54.765625 -38.6875 50.15625 -36.691406 44.875 -35.140625 C 39.601562 -33.585938 33.972656 -32.695312 27.984375 -32.46875 C 27.535156 -31.03125 27.144531 -29.476562 26.8125 -27.8125 C 26.476562 -26.363281 26.195312 -24.722656 25.96875 -22.890625 C 25.75 -21.066406 25.640625 -19.15625 25.640625 -17.15625 C 25.640625 -9.9375 28.363281 -6.328125 33.8125 -6.328125 C 36.582031 -6.328125 39.269531 -6.992188 41.875 -8.328125 C 44.488281 -9.660156 46.878906 -11.128906 49.046875 -12.734375 C 51.210938 -14.347656 53.097656 -15.820312 54.703125 -17.15625 C 56.316406 -18.488281 57.507812 -19.15625 58.28125 -19.15625 Z M 29.640625 -37.796875 C 33.523438 -38.128906 36.992188 -39.128906 40.046875 -40.796875 C 43.097656 -42.460938 45.648438 -44.40625 47.703125 -46.625 C 49.765625 -48.84375 51.347656 -51.171875 52.453125 -53.609375 C 53.566406 -56.054688 54.125 -58.113281 54.125 -59.78125 C 54.125 -62.894531 53.066406 -64.453125 50.953125 -64.453125 C 49.398438 -64.453125 47.679688 -63.785156 45.796875 -62.453125 C 43.910156 -61.117188 41.992188 -59.257812 40.046875 -56.875 C 38.109375 -54.488281 36.222656 -51.65625 34.390625 -48.375 C 32.554688 -45.101562 30.972656 -41.578125 29.640625 -37.796875 Z M 29.640625 -37.796875 "/></g></g></g><g fill="#faf3e0" fill-opacity="1"><g transform="translate(1111.396051, 378.918508)"><g><path d="M 46.125 -10.15625 C 46.125 -9.269531 45.539062 -8.101562 44.375 -6.65625 C 43.207031 -5.21875 41.566406 -3.832031 39.453125 -2.5 C 37.347656 -1.164062 34.769531 0 31.71875 1 C 28.664062 2 25.253906 2.5 21.484375 2.5 C 16.597656 2.5 12.765625 1.304688 9.984375 -1.078125 C 7.210938 -3.460938 5.828125 -6.765625 5.828125 -10.984375 C 5.828125 -14.867188 6.601562 -19.5625 8.15625 -25.0625 C 9.707031 -30.5625 11.429688 -35.921875 13.328125 -41.140625 C 15.429688 -47.242188 17.925781 -53.457031 20.8125 -59.78125 L 11.328125 -59.78125 C 9.992188 -59.78125 9.328125 -60.390625 9.328125 -61.609375 C 9.328125 -62.722656 10.046875 -63.664062 11.484375 -64.4375 C 12.929688 -65.21875 14.625 -65.992188 16.5625 -66.765625 C 18.507812 -67.546875 20.507812 -68.351562 22.5625 -69.1875 C 24.613281 -70.019531 26.253906 -71.050781 27.484375 -72.28125 C 28.585938 -73.382812 30.191406 -74.820312 32.296875 -76.59375 C 34.410156 -78.375 36.6875 -80.125 39.125 -81.84375 C 41.570312 -83.570312 44.070312 -85.046875 46.625 -86.265625 C 49.175781 -87.484375 51.566406 -88.09375 53.796875 -88.09375 C 55.347656 -88.09375 56.125 -87.375 56.125 -85.9375 C 56.125 -85.269531 55.789062 -84.296875 55.125 -83.015625 C 54.457031 -81.734375 53.625 -80.257812 52.625 -78.59375 C 51.625 -76.9375 50.566406 -75.132812 49.453125 -73.1875 C 48.347656 -71.25 47.40625 -69.28125 46.625 -67.28125 C 48.738281 -67.5 50.796875 -67.71875 52.796875 -67.9375 C 54.453125 -68.164062 56.140625 -68.332031 57.859375 -68.4375 C 59.585938 -68.550781 61.0625 -68.609375 62.28125 -68.609375 C 64.0625 -68.609375 64.953125 -68 64.953125 -66.78125 C 64.953125 -65.332031 64.453125 -63.800781 63.453125 -62.1875 C 62.453125 -60.582031 61.394531 -59.78125 60.28125 -59.78125 L 43.625 -59.78125 C 40.851562 -53.5625 38.46875 -47.566406 36.46875 -41.796875 C 35.582031 -39.359375 34.722656 -36.832031 33.890625 -34.21875 C 33.054688 -31.613281 32.304688 -29.085938 31.640625 -26.640625 C 30.972656 -24.203125 30.441406 -21.867188 30.046875 -19.640625 C 29.660156 -17.421875 29.46875 -15.484375 29.46875 -13.828125 C 29.46875 -9.378906 30.96875 -7.15625 33.96875 -7.15625 C 35.414062 -7.15625 36.691406 -7.378906 37.796875 -7.828125 C 38.910156 -8.273438 39.882812 -8.800781 40.71875 -9.40625 C 41.550781 -10.019531 42.269531 -10.546875 42.875 -10.984375 C 43.488281 -11.429688 44.070312 -11.65625 44.625 -11.65625 C 45.625 -11.65625 46.125 -11.15625 46.125 -10.15625 Z M 46.125 -10.15625 "/></g></g></g><g fill="#faf3e0" fill-opacity="1"><g transform="translate(1165.020161, 378.918508)"><g><path d="M 69.4375 -7.828125 C 70.101562 -7.828125 70.769531 -8.046875 71.4375 -8.484375 C 72.101562 -8.929688 72.710938 -9.40625 73.265625 -9.90625 C 73.828125 -10.40625 74.359375 -10.875 74.859375 -11.3125 C 75.359375 -11.757812 75.773438 -11.984375 76.109375 -11.984375 C 77.210938 -11.984375 77.765625 -11.265625 77.765625 -9.828125 C 77.765625 -9.046875 77.207031 -7.960938 76.09375 -6.578125 C 74.988281 -5.191406 73.492188 -3.832031 71.609375 -2.5 C 69.722656 -1.164062 67.445312 0 64.78125 1 C 62.113281 2 59.226562 2.5 56.125 2.5 C 52.570312 2.5 49.820312 1.582031 47.875 -0.25 C 45.9375 -2.082031 44.96875 -4.882812 44.96875 -8.65625 C 44.96875 -10.539062 45.132812 -12.398438 45.46875 -14.234375 C 45.800781 -16.066406 46.242188 -17.757812 46.796875 -19.3125 C 47.347656 -21.09375 48.015625 -22.816406 48.796875 -24.484375 L 48.125 -24.8125 C 45.6875 -19.707031 42.800781 -15.15625 39.46875 -11.15625 C 36.582031 -7.71875 33.082031 -4.582031 28.96875 -1.75 C 24.863281 1.082031 20.148438 2.5 14.828125 2.5 C 10.941406 2.5 7.691406 1.363281 5.078125 -0.90625 C 2.472656 -3.1875 1.171875 -6.4375 1.171875 -10.65625 C 1.171875 -17.425781 2.695312 -24.390625 5.75 -31.546875 C 8.800781 -38.710938 12.960938 -45.265625 18.234375 -51.203125 C 23.503906 -57.148438 29.691406 -62.035156 36.796875 -65.859375 C 43.910156 -69.691406 51.570312 -71.609375 59.78125 -71.609375 C 67.113281 -71.609375 72.859375 -70.582031 77.015625 -68.53125 C 81.179688 -66.476562 83.265625 -64.335938 83.265625 -62.109375 C 83.265625 -60.453125 82.429688 -57.707031 80.765625 -53.875 C 79.097656 -50.039062 77.238281 -45.679688 75.1875 -40.796875 C 73.132812 -35.910156 71.273438 -30.800781 69.609375 -25.46875 C 67.941406 -20.144531 67.109375 -15.207031 67.109375 -10.65625 C 67.109375 -8.769531 67.882812 -7.828125 69.4375 -7.828125 Z M 27.140625 -9 C 28.804688 -9 30.75 -10.109375 32.96875 -12.328125 C 35.1875 -14.546875 37.460938 -17.398438 39.796875 -20.890625 C 42.128906 -24.390625 44.429688 -28.222656 46.703125 -32.390625 C 48.984375 -36.554688 51.039062 -40.582031 52.875 -44.46875 C 54.707031 -48.351562 56.175781 -51.847656 57.28125 -54.953125 C 58.394531 -58.066406 58.953125 -60.234375 58.953125 -61.453125 C 58.953125 -63.453125 57.726562 -64.453125 55.28125 -64.453125 C 52.957031 -64.453125 50.597656 -63.535156 48.203125 -61.703125 C 45.816406 -59.867188 43.457031 -57.476562 41.125 -54.53125 C 38.800781 -51.59375 36.640625 -48.234375 34.640625 -44.453125 C 32.640625 -40.679688 30.863281 -36.878906 29.3125 -33.046875 C 27.757812 -29.222656 26.566406 -25.503906 25.734375 -21.890625 C 24.898438 -18.285156 24.484375 -15.207031 24.484375 -12.65625 C 24.484375 -10.21875 25.367188 -9 27.140625 -9 Z M 27.140625 -9 "/></g></g></g><g fill="#faf3e0" fill-opacity="1"><g transform="translate(1250.285903, 378.918508)"><g><path d="M 60.78125 -57.78125 C 60.78125 -59.445312 60.113281 -60.28125 58.78125 -60.28125 C 56.78125 -60.28125 54.445312 -59.03125 51.78125 -56.53125 C 49.125 -54.039062 46.570312 -51.296875 44.125 -48.296875 C 41.238281 -44.742188 38.296875 -40.742188 35.296875 -36.296875 C 34.410156 -33.078125 33.46875 -30.023438 32.46875 -27.140625 C 31.582031 -24.585938 30.695312 -21.921875 29.8125 -19.140625 C 28.925781 -16.367188 28.035156 -13.984375 27.140625 -11.984375 C 25.921875 -8.992188 24.753906 -6.582031 23.640625 -4.75 C 22.535156 -2.914062 21.367188 -1.46875 20.140625 -0.40625 C 18.921875 0.644531 17.617188 1.363281 16.234375 1.75 C 14.847656 2.132812 13.265625 2.328125 11.484375 2.328125 C 10.265625 2.328125 8.988281 2.242188 7.65625 2.078125 C 6.320312 1.910156 5.097656 1.660156 3.984375 1.328125 C 2.878906 0.992188 1.9375 0.550781 1.15625 0 C 0.382812 -0.550781 0 -1.21875 0 -2 C 0 -3.550781 0.359375 -5.242188 1.078125 -7.078125 C 1.804688 -8.910156 2.664062 -10.710938 3.65625 -12.484375 C 4.65625 -14.265625 5.597656 -15.847656 6.484375 -17.234375 C 7.378906 -18.617188 7.992188 -19.59375 8.328125 -20.15625 C 8.546875 -20.488281 8.710938 -20.820312 8.828125 -21.15625 C 8.941406 -21.488281 9.109375 -21.765625 9.328125 -21.984375 C 9.546875 -22.535156 10.070312 -23.8125 10.90625 -25.8125 C 11.738281 -27.8125 12.570312 -30.253906 13.40625 -33.140625 C 14.238281 -36.023438 14.988281 -39.1875 15.65625 -42.625 C 16.320312 -46.070312 16.65625 -49.515625 16.65625 -52.953125 C 16.65625 -56.734375 16.265625 -59.148438 15.484375 -60.203125 C 14.710938 -61.253906 13.9375 -61.78125 13.15625 -61.78125 C 12.269531 -61.78125 11.546875 -61.585938 10.984375 -61.203125 C 10.429688 -60.816406 9.878906 -60.625 9.328125 -60.625 C 8.441406 -60.625 8 -61.175781 8 -62.28125 C 8 -63.0625 8.523438 -63.953125 9.578125 -64.953125 C 10.628906 -65.953125 12.070312 -66.921875 13.90625 -67.859375 C 15.738281 -68.804688 17.816406 -69.613281 20.140625 -70.28125 C 22.472656 -70.945312 24.921875 -71.28125 27.484375 -71.28125 C 31.367188 -71.28125 34.363281 -70.25 36.46875 -68.1875 C 38.582031 -66.132812 39.640625 -63.390625 39.640625 -59.953125 C 39.640625 -58.285156 39.441406 -56.5625 39.046875 -54.78125 C 38.660156 -53.007812 38.191406 -51.347656 37.640625 -49.796875 C 37.078125 -48.015625 36.410156 -46.289062 35.640625 -44.625 L 36.296875 -44.296875 C 40.960938 -53.285156 46.40625 -60.054688 52.625 -64.609375 C 58.84375 -69.160156 65.445312 -71.4375 72.4375 -71.4375 C 76.882812 -71.4375 80.492188 -70.660156 83.265625 -69.109375 C 86.035156 -67.554688 87.421875 -65.722656 87.421875 -63.609375 C 87.421875 -63.171875 86.945312 -61.921875 86 -59.859375 C 85.0625 -57.804688 83.867188 -55.28125 82.421875 -52.28125 C 80.984375 -49.289062 79.429688 -45.960938 77.765625 -42.296875 C 76.097656 -38.628906 74.539062 -34.878906 73.09375 -31.046875 C 71.65625 -27.222656 70.460938 -23.503906 69.515625 -19.890625 C 68.578125 -16.285156 68.109375 -13.039062 68.109375 -10.15625 C 68.109375 -9.382812 68.132812 -8.75 68.1875 -8.25 C 68.25 -7.75 68.28125 -7.332031 68.28125 -7 C 68.945312 -7 69.722656 -7.21875 70.609375 -7.65625 C 71.492188 -8.101562 72.351562 -8.601562 73.1875 -9.15625 C 74.019531 -9.707031 74.820312 -10.207031 75.59375 -10.65625 C 76.375 -11.101562 76.988281 -11.328125 77.4375 -11.328125 C 77.882812 -11.328125 78.242188 -11.101562 78.515625 -10.65625 C 78.796875 -10.207031 78.9375 -9.707031 78.9375 -9.15625 C 78.9375 -8.269531 78.296875 -7.1875 77.015625 -5.90625 C 75.742188 -4.632812 74.050781 -3.382812 71.9375 -2.15625 C 69.832031 -0.9375 67.335938 0.0859375 64.453125 0.921875 C 61.566406 1.753906 58.566406 2.171875 55.453125 2.171875 C 51.679688 2.171875 48.988281 1.445312 47.375 0 C 45.769531 -1.445312 44.96875 -3.445312 44.96875 -6 C 44.96875 -9.550781 45.351562 -13.15625 46.125 -16.8125 C 46.90625 -20.476562 47.878906 -24.113281 49.046875 -27.71875 C 50.210938 -31.332031 51.488281 -34.773438 52.875 -38.046875 C 54.257812 -41.328125 55.535156 -44.296875 56.703125 -46.953125 C 57.867188 -49.617188 58.835938 -51.894531 59.609375 -53.78125 C 60.390625 -55.675781 60.78125 -57.007812 60.78125 -57.78125 Z M 60.78125 -57.78125 "/></g></g></g><g fill="#faf3e0" fill-opacity="1"><g transform="translate(1337.550053, 378.918508)"><g><path d="M 69.4375 -7.828125 C 70.101562 -7.828125 70.769531 -8.046875 71.4375 -8.484375 C 72.101562 -8.929688 72.710938 -9.40625 73.265625 -9.90625 C 73.828125 -10.40625 74.359375 -10.875 74.859375 -11.3125 C 75.359375 -11.757812 75.773438 -11.984375 76.109375 -11.984375 C 77.210938 -11.984375 77.765625 -11.265625 77.765625 -9.828125 C 77.765625 -9.046875 77.207031 -7.960938 76.09375 -6.578125 C 74.988281 -5.191406 73.492188 -3.832031 71.609375 -2.5 C 69.722656 -1.164062 67.445312 0 64.78125 1 C 62.113281 2 59.226562 2.5 56.125 2.5 C 52.570312 2.5 49.820312 1.582031 47.875 -0.25 C 45.9375 -2.082031 44.96875 -4.882812 44.96875 -8.65625 C 44.96875 -10.539062 45.132812 -12.398438 45.46875 -14.234375 C 45.800781 -16.066406 46.242188 -17.757812 46.796875 -19.3125 C 47.347656 -21.09375 48.015625 -22.816406 48.796875 -24.484375 L 48.125 -24.8125 C 45.6875 -19.707031 42.800781 -15.15625 39.46875 -11.15625 C 36.582031 -7.71875 33.082031 -4.582031 28.96875 -1.75 C 24.863281 1.082031 20.148438 2.5 14.828125 2.5 C 10.941406 2.5 7.691406 1.363281 5.078125 -0.90625 C 2.472656 -3.1875 1.171875 -6.4375 1.171875 -10.65625 C 1.171875 -17.425781 2.695312 -24.390625 5.75 -31.546875 C 8.800781 -38.710938 12.960938 -45.265625 18.234375 -51.203125 C 23.503906 -57.148438 29.691406 -62.035156 36.796875 -65.859375 C 43.910156 -69.691406 51.570312 -71.609375 59.78125 -71.609375 C 67.113281 -71.609375 72.859375 -70.582031 77.015625 -68.53125 C 81.179688 -66.476562 83.265625 -64.335938 83.265625 -62.109375 C 83.265625 -60.453125 82.429688 -57.707031 80.765625 -53.875 C 79.097656 -50.039062 77.238281 -45.679688 75.1875 -40.796875 C 73.132812 -35.910156 71.273438 -30.800781 69.609375 -25.46875 C 67.941406 -20.144531 67.109375 -15.207031 67.109375 -10.65625 C 67.109375 -8.769531 67.882812 -7.828125 69.4375 -7.828125 Z M 27.140625 -9 C 28.804688 -9 30.75 -10.109375 32.96875 -12.328125 C 35.1875 -14.546875 37.460938 -17.398438 39.796875 -20.890625 C 42.128906 -24.390625 44.429688 -28.222656 46.703125 -32.390625 C 48.984375 -36.554688 51.039062 -40.582031 52.875 -44.46875 C 54.707031 -48.351562 56.175781 -51.847656 57.28125 -54.953125 C 58.394531 -58.066406 58.953125 -60.234375 58.953125 -61.453125 C 58.953125 -63.453125 57.726562 -64.453125 55.28125 -64.453125 C 52.957031 -64.453125 50.597656 -63.535156 48.203125 -61.703125 C 45.816406 -59.867188 43.457031 -57.476562 41.125 -54.53125 C 38.800781 -51.59375 36.640625 -48.234375 34.640625 -44.453125 C 32.640625 -40.679688 30.863281 -36.878906 29.3125 -33.046875 C 27.757812 -29.222656 26.566406 -25.503906 25.734375 -21.890625 C 24.898438 -18.285156 24.484375 -15.207031 24.484375 -12.65625 C 24.484375 -10.21875 25.367188 -9 27.140625 -9 Z M 27.140625 -9 "/></g></g></g><g mask="url(#fa1b5697cc)"><g transform="matrix(1, 0, 0, 1, 390, 470)"><g clip-path="url(#34d5fb0240)"><g fill="#d4cdc0" fill-opacity="1"><g transform="translate(0.972525, 80.652453)"><g><path d="M 32.9375 -65.359375 C 42.195312 -65.359375 49.289062 -62.722656 54.21875 -57.453125 C 59.144531 -52.191406 61.609375 -44.628906 61.609375 -34.765625 C 61.609375 -23.347656 58.941406 -14.597656 53.609375 -8.515625 C 48.273438 -2.429688 40.609375 0.609375 30.609375 0.609375 C 27.835938 0.609375 24.472656 0.554688 20.515625 0.453125 C 16.566406 0.347656 12.90625 0.195312 9.53125 0 L 9.421875 0 L 9.9375 -19.5625 L 9.421875 -64.96875 L 9.53125 -64.96875 Z M 31.921875 -6.1875 C 38.816406 -6.1875 44.101562 -8.429688 47.78125 -12.921875 C 51.46875 -17.410156 53.3125 -24.113281 53.3125 -33.03125 C 53.3125 -50.0625 46.316406 -58.578125 32.328125 -58.578125 C 28.066406 -58.578125 23.171875 -58.441406 17.640625 -58.171875 L 17.234375 -20.265625 L 17.53125 -6.796875 C 19.625 -6.585938 22.140625 -6.429688 25.078125 -6.328125 C 28.015625 -6.234375 30.296875 -6.1875 31.921875 -6.1875 Z M 31.921875 -6.1875 "/></g></g></g><g fill="#d4cdc0" fill-opacity="1"><g transform="translate(77.488074, 80.652453)"><g><path d="M 32.9375 -65.5625 C 41.851562 -65.5625 48.691406 -62.828125 53.453125 -57.359375 C 58.222656 -51.890625 60.609375 -44.019531 60.609375 -33.75 C 60.609375 -22.664062 58.070312 -14.132812 53 -8.15625 C 47.9375 -2.175781 40.707031 0.8125 31.3125 0.8125 C 22.53125 0.8125 15.753906 -2.023438 10.984375 -7.703125 C 6.222656 -13.378906 3.84375 -21.453125 3.84375 -31.921875 C 3.84375 -42.734375 6.359375 -51.039062 11.390625 -56.84375 C 16.429688 -62.65625 23.613281 -65.5625 32.9375 -65.5625 Z M 32.4375 -58.984375 C 18.914062 -58.984375 12.15625 -50.265625 12.15625 -32.828125 C 12.15625 -23.578125 13.789062 -16.722656 17.0625 -12.265625 C 20.34375 -7.804688 25.296875 -5.578125 31.921875 -5.578125 C 45.429688 -5.578125 52.1875 -14.460938 52.1875 -32.234375 C 52.1875 -41.285156 50.546875 -48.003906 47.265625 -52.390625 C 43.992188 -56.785156 39.050781 -58.984375 32.4375 -58.984375 Z M 32.4375 -58.984375 "/></g></g></g><g fill="#d4cdc0" fill-opacity="1"><g transform="translate(152.888843, 80.652453)"><g><path d="M 59.28125 -19.046875 L 59.484375 0 L 50.96875 0 L 17.328125 -51.984375 L 16.828125 -51.984375 L 16.71875 -21.390625 L 16.828125 0 L 9.53125 0 L 9.828125 -19.25 L 9.625 -64.96875 L 18.046875 -64.96875 L 51.578125 -12.96875 L 52.296875 -12.96875 L 52.1875 -64.5625 L 59.796875 -65.15625 Z M 59.28125 -19.046875 "/></g></g></g><g fill="#d4cdc0" fill-opacity="1"><g transform="translate(233.154116, 80.652453)"><g/></g></g><g fill="#d4cdc0" fill-opacity="1"><g transform="translate(260.923363, 80.652453)"><g><path d="M 17.640625 -57.96875 L 17.4375 -35.375 L 28.375 -35.171875 L 38.921875 -35.46875 L 39.53125 -34.65625 L 38.8125 -28.484375 L 27.5625 -28.78125 L 17.328125 -28.6875 L 17.234375 -20.265625 L 17.640625 0 L 9.421875 0 L 9.9375 -19.5625 L 9.421875 -64.96875 L 43.984375 -64.96875 L 44.59375 -64.15625 L 43.875 -57.671875 L 28.984375 -58.171875 Z M 17.640625 -57.96875 "/></g></g></g><g fill="#d4cdc0" fill-opacity="1"><g transform="translate(315.954062, 80.652453)"><g><path d="M 41.859375 -6.078125 L 41.140625 0 L 9.125 0 L 9.625 -19.5625 L 9.125 -64.96875 L 17.4375 -64.96875 L 16.921875 -20.265625 L 17.234375 -6.796875 L 41.25 -6.796875 Z M 41.859375 -6.078125 "/></g></g></g><g fill="#d4cdc0" fill-opacity="1"><g transform="translate(369.160572, 80.652453)"><g><path d="M 32.9375 -65.5625 C 41.851562 -65.5625 48.691406 -62.828125 53.453125 -57.359375 C 58.222656 -51.890625 60.609375 -44.019531 60.609375 -33.75 C 60.609375 -22.664062 58.070312 -14.132812 53 -8.15625 C 47.9375 -2.175781 40.707031 0.8125 31.3125 0.8125 C 22.53125 0.8125 15.753906 -2.023438 10.984375 -7.703125 C 6.222656 -13.378906 3.84375 -21.453125 3.84375 -31.921875 C 3.84375 -42.734375 6.359375 -51.039062 11.390625 -56.84375 C 16.429688 -62.65625 23.613281 -65.5625 32.9375 -65.5625 Z M 32.4375 -58.984375 C 18.914062 -58.984375 12.15625 -50.265625 12.15625 -32.828125 C 12.15625 -23.578125 13.789062 -16.722656 17.0625 -12.265625 C 20.34375 -7.804688 25.296875 -5.578125 31.921875 -5.578125 C 45.429688 -5.578125 52.1875 -14.460938 52.1875 -32.234375 C 52.1875 -41.285156 50.546875 -48.003906 47.265625 -52.390625 C 43.992188 -56.785156 39.050781 -58.984375 32.4375 -58.984375 Z M 32.4375 -58.984375 "/></g></g></g><g fill="#d4cdc0" fill-opacity="1"><g transform="translate(444.56134, 80.652453)"><g><path d="M 35.875 -26.25 C 40.332031 -18.882812 45.941406 -10.773438 52.703125 -1.921875 L 52.59375 -0.90625 C 50.164062 0.03125 47.664062 0.632812 45.09375 0.90625 L 43.984375 0.203125 C 38.441406 -8.109375 33.472656 -16.21875 29.078125 -24.125 L 17.234375 -24.125 L 17.234375 -20.265625 L 17.640625 0 L 9.421875 0 L 9.9375 -19.5625 L 9.421875 -64.96875 L 29.28125 -65.0625 C 35.632812 -65.0625 40.550781 -63.457031 44.03125 -60.25 C 47.507812 -57.039062 49.25 -52.460938 49.25 -46.515625 C 49.25 -42.054688 48.082031 -38.050781 45.75 -34.5 C 43.425781 -30.957031 40.132812 -28.207031 35.875 -26.25 Z M 17.328125 -31.015625 L 29.484375 -30.703125 C 37.054688 -32.867188 40.84375 -37.90625 40.84375 -45.8125 C 40.84375 -49.925781 39.726562 -53.015625 37.5 -55.078125 C 35.269531 -57.140625 31.925781 -58.238281 27.46875 -58.375 L 17.640625 -58.0625 Z M 17.328125 -31.015625 "/></g></g></g><g fill="#d4cdc0" fill-opacity="1"><g transform="translate(511.854611, 80.652453)"><g><path d="M 17.234375 -20.265625 L 17.640625 0 L 9.421875 0 L 9.9375 -19.5625 L 9.421875 -64.96875 L 17.734375 -64.96875 Z M 17.234375 -20.265625 "/></g></g></g><g fill="#d4cdc0" fill-opacity="1"><g transform="translate(550.062265, 80.652453)"><g><path d="M 59.28125 -19.046875 L 59.484375 0 L 50.96875 0 L 17.328125 -51.984375 L 16.828125 -51.984375 L 16.71875 -21.390625 L 16.828125 0 L 9.53125 0 L 9.828125 -19.25 L 9.625 -64.96875 L 18.046875 -64.96875 L 51.578125 -12.96875 L 52.296875 -12.96875 L 52.1875 -64.5625 L 59.796875 -65.15625 Z M 59.28125 -19.046875 "/></g></g></g><g fill="#d4cdc0" fill-opacity="1"><g transform="translate(630.327551, 80.652453)"><g><path d="M 32.9375 -65.5625 C 41.851562 -65.5625 48.691406 -62.828125 53.453125 -57.359375 C 58.222656 -51.890625 60.609375 -44.019531 60.609375 -33.75 C 60.609375 -22.664062 58.070312 -14.132812 53 -8.15625 C 47.9375 -2.175781 40.707031 0.8125 31.3125 0.8125 C 22.53125 0.8125 15.753906 -2.023438 10.984375 -7.703125 C 6.222656 -13.378906 3.84375 -21.453125 3.84375 -31.921875 C 3.84375 -42.734375 6.359375 -51.039062 11.390625 -56.84375 C 16.429688 -62.65625 23.613281 -65.5625 32.9375 -65.5625 Z M 32.4375 -58.984375 C 18.914062 -58.984375 12.15625 -50.265625 12.15625 -32.828125 C 12.15625 -23.578125 13.789062 -16.722656 17.0625 -12.265625 C 20.34375 -7.804688 25.296875 -5.578125 31.921875 -5.578125 C 45.429688 -5.578125 52.1875 -14.460938 52.1875 -32.234375 C 52.1875 -41.285156 50.546875 -48.003906 47.265625 -52.390625 C 43.992188 -56.785156 39.050781 -58.984375 32.4375 -58.984375 Z M 32.4375 -58.984375 "/></g></g></g></g></g></g><path stroke-linecap="butt" transform="matrix(1.548447, 0, 0, 1.548447, 191.279557, 434.10595)" fill="none" stroke-linejoin="miter" d="M 0.0010931 6.500657 L 235.312429 6.500657 " stroke="#00bf63" stroke-width="13" stroke-opacity="1" stroke-miterlimit="4"/><path stroke-linecap="butt" transform="matrix(1.548447, 0, 0, 1.548447, 555.64985, 434.10595)" fill="none" stroke-linejoin="miter" d="M -0.000912377 6.500657 L 235.312946 6.500657 " stroke="#ffffff" stroke-width="13" stroke-opacity="1" stroke-miterlimit="4"/><path stroke-linecap="butt" transform="matrix(1.548447, 0, 0, 1.548447, 920.020088, 434.10595)" fill="none" stroke-linejoin="miter" d="M -0.000359513 6.500657 L 235.313499 6.500657 " stroke="#ff3131" stroke-width="13" stroke-opacity="1" stroke-miterlimit="4"/></svg>